<svg xmlns="http://www.w3.org/2000/svg" viewBox="0 0 200 200" width="200" height="200">
  <!-- Rainbow in the Sky -->
  <!-- Sky -->
  <rect width="200" height="200" fill="#87CEEB"/>
  <!-- Rainbow arcs -->
  <path d="M 30 150 Q 100 50 170 150" stroke="#FF0000" stroke-width="8" fill="none"/>
  <path d="M 30 155 Q 100 60 170 155" stroke="#FF7F00" stroke-width="8" fill="none"/>
  <path d="M 30 160 Q 100 70 170 160" stroke="#FFFF00" stroke-width="8" fill="none"/>
  <path d="M 30 165 Q 100 80 170 165" stroke="#00FF00" stroke-width="8" fill="none"/>
  <path d="M 30 170 Q 100 90 170 170" stroke="#0000FF" stroke-width="8" fill="none"/>
  <path d="M 30 175 Q 100 100 170 175" stroke="#4B0082" stroke-width="8" fill="none"/>
  <path d="M 30 180 Q 100 110 170 180" stroke="#9400D3" stroke-width="8" fill="none"/>
  <!-- Clouds -->
  <ellipse cx="40" cy="40" rx="15" ry="10" fill="#FFF"/>
  <ellipse cx="50" cy="35" rx="12" ry="8" fill="#FFF"/>
  <ellipse cx="60" cy="40" rx="15" ry="10" fill="#FFF"/>
  <ellipse cx="140" cy="50" rx="15" ry="10" fill="#FFF"/>
  <ellipse cx="150" cy="45" rx="12" ry="8" fill="#FFF"/>
  <ellipse cx="160" cy="50" rx="15" ry="10" fill="#FFF"/>
  <!-- Ground -->
  <rect y="180" width="200" height="20" fill="#90EE90"/>
</svg>
